<?xml version="1.0" standalone="no"?>
<!DOCTYPE svg PUBLIC "-//W3C//DTD SVG 20010904//EN"
 "http://www.w3.org/TR/2001/REC-SVG-20010904/DTD/svg10.dtd">
<svg version="1.0" xmlns="http://www.w3.org/2000/svg"
 width="512.000000pt" height="512.000000pt" viewBox="0 0 512.000000 512.000000"
 preserveAspectRatio="xMidYMid meet">
<metadata>
Created by potrace 1.14, written by Peter Selinger 2001-2017
</metadata>
<g transform="translate(0.000000,512.000000) scale(0.100000,-0.100000)"
fill="#000000" stroke="none">
<path d="M731 5105 c-347 -76 -591 -300 -698 -642 l-28 -88 -2 -1785 c-1
-1182 1 -1804 8 -1840 35 -187 122 -353 254 -485 111 -111 230 -182 390 -232
l90 -28 1810 0 c1706 0 1814 1 1875 18 73 20 77 21 179 68 239 109 417 329
486 602 l23 92 -1 1795 -2 1795 -28 88 c-99 315 -309 525 -624 624 l-88 28
-1790 2 c-1498 1 -1800 -1 -1854 -12z"/>
</g>
</svg>
