<svg width="20" height="23.000000000000004" xmlns="http://www.w3.org/2000/svg">

 <g>
  <title>background</title>
  <rect fill="none" id="canvas_background" height="25" width="22" y="-1" x="-1"/>
 </g>
 <g>
  <title>Layer 1</title>
  <path id="svg_1" d="m16.98175,0.009256l-14,0c-1.654,0 -3,1.346 -3,3l0,19c0,0.382 0.218,0.73 0.561,0.898c0.344,0.167 0.752,0.126 1.053,-0.109l8.386,-6.522l8.386,6.522c0.179,0.14 0.396,0.211 0.614,0.211c0.149,0 0.3,-0.034 0.439,-0.102c0.343,-0.168 0.561,-0.516 0.561,-0.898l0,-19c0,-1.654 -1.346,-3 -3,-3zm1,19.956l-7.386,-5.745c-0.18,-0.141 -0.397,-0.211 -0.614,-0.211s-0.434,0.07 -0.614,0.21l-7.386,5.746l0,-16.956c0,-0.551 0.449,-1 1,-1l14,0c0.551,0 1,0.449 1,1l0,16.956z"/>
 </g>
</svg>